<?xml version="1.0" standalone="no"?>
<!DOCTYPE svg PUBLIC "-//W3C//DTD SVG 20010904//EN"
 "http://www.w3.org/TR/2001/REC-SVG-20010904/DTD/svg10.dtd">
<svg version="1.0" xmlns="http://www.w3.org/2000/svg"
 width="300.000000pt" height="300.000000pt" viewBox="0 0 300.000000 300.000000"
 preserveAspectRatio="xMidYMid meet">
<metadata>
Created by potrace 1.11, written by Peter Selinger 2001-2013
</metadata>
<g transform="translate(0.000000,300.000000) scale(0.100000,-0.100000)"
fill="#000000" stroke="none">
<path d="M1389 2986 c-2 -2 -33 -7 -69 -10 -166 -17 -326 -65 -485 -144 -147
-73 -308 -191 -409 -300 -82 -89 -102 -114 -161 -202 -112 -168 -197 -373
-221 -535 -3 -16 -7 -37 -10 -45 -23 -64 -22 -427 0 -491 3 -8 7 -25 10 -39
11 -63 28 -123 57 -206 112 -319 347 -604 634 -773 78 -46 100 -57 195 -99 86
-38 225 -77 315 -89 22 -2 56 -8 76 -13 43 -9 360 -7 375 2 6 4 30 9 55 12
105 13 277 69 404 133 82 41 245 147 295 193 19 17 49 44 65 59 51 45 150 162
207 246 74 106 149 265 187 395 33 108 36 122 47 205 3 28 9 70 13 95 12 81 5
259 -15 375 -8 51 -45 199 -54 220 -4 11 -15 39 -24 62 -34 90 -98 214 -158
307 -67 102 -218 260 -328 342 -204 154 -436 250 -700 290 -45 6 -295 15 -301
10z m206 -220 c95 -7 125 -12 216 -36 356 -92 652 -333 817 -665 37 -74 86
-209 97 -266 3 -13 8 -37 12 -54 12 -54 13 -68 16 -208 3 -124 -1 -170 -27
-310 -5 -29 -22 -89 -33 -117 -4 -8 -7 -17 -8 -20 -8 -31 -24 -68 -57 -135
-115 -229 -276 -402 -499 -535 -68 -41 -208 -104 -254 -115 -5 -1 -17 -5 -25
-8 -19 -8 -151 -34 -210 -42 -89 -12 -275 -6 -353 11 -16 3 -38 7 -50 9 -92
11 -284 86 -391 151 -242 148 -434 378 -538 644 -5 14 -11 32 -14 40 -2 8 -12
47 -23 86 -28 105 -36 165 -36 304 0 119 7 204 21 267 87 391 343 713 699 882
72 34 163 69 190 72 6 1 21 5 34 10 13 5 39 12 59 15 19 3 44 8 56 10 11 3 55
7 96 11 41 3 76 7 78 8 2 2 15 1 30 0 15 -2 59 -6 97 -9z"/>
<path d="M769 2418 c-5 -10 -5 -258 0 -259 3 -1 213 -2 466 -3 436 -1 461 -3
489 -21 30 -20 56 -69 56 -107 0 -13 -8 -36 -19 -51 -23 -36 -710 -727 -722
-727 -5 0 -12 -1 -16 -2 -5 -2 -9 141 -9 317 -1 176 -2 323 -3 328 -2 11 -251
9 -251 -3 -2 -25 1 -291 5 -710 5 -384 8 -509 14 -574 1 -5 117 110 258 254
142 145 406 412 587 594 312 314 396 409 396 448 0 9 4 19 9 22 9 6 11 23 14
96 2 68 -10 118 -44 190 -52 108 -143 178 -258 200 -45 8 -968 16 -972 8z"/>
<path d="M1779 1203 c0 -26 -1 -70 0 -98 l0 -50 -85 93 c-47 50 -91 92 -97 92
-7 0 -51 -40 -99 -88 l-88 -87 223 -225 222 -225 182 0 c100 0 184 3 187 5 2
3 -40 45 -95 94 l-99 89 -1 51 c0 28 -1 128 -2 221 l-2 170 -122 3 -123 3 -1
-48z"/>
<path d="M1184 870 l1 -55 56 -3 56 -3 -2 53 c-1 29 -3 55 -4 58 0 3 -25 5
-55 5 l-54 0 2 -55z"/>
<path d="M1351 915 c-4 -5 -6 -30 -6 -55 l0 -45 58 -3 57 -3 0 58 0 58 -51 0
c-28 0 -54 -4 -58 -10z"/>
<path d="M1190 710 l0 -56 58 0 57 0 -2 35 c-1 20 -2 46 -2 58 -1 19 -6 21
-56 20 l-55 -2 0 -55z"/>
<path d="M1347 761 c-2 -3 -2 -28 -2 -56 l1 -50 54 0 55 0 3 55 3 56 -56 0
c-31 0 -57 -2 -58 -5z"/>
</g>
</svg>
